<svg version="1.1" id="Layer_1" xmlns="http://www.w3.org/2000/svg" xmlns:xlink="http://www.w3.org/1999/xlink" x="0px" y="0px"
	 width="100%" viewBox="0 0 800 800" enable-background="new 0 0 800 800" xml:space="preserve">
<path fill="#1D1E22" opacity="1.000000" stroke="none" 
	d="
M801.000000,313.000000 
	C801.000000,476.000000 801.000000,638.500000 801.000000,801.000000 
	C534.333313,801.000000 267.666656,801.000000 1.000000,801.000000 
	C1.000000,534.333313 1.000000,267.666656 1.000000,1.000000 
	C267.666656,1.000000 534.333313,1.000000 801.000000,1.000000 
	C801.000000,104.833336 801.000000,208.666672 801.000000,313.000000 
M554.948792,121.287743 
	C550.020996,118.828598 545.093140,116.369453 539.686523,113.393425 
	C534.770264,111.271469 529.854065,109.149521 524.470459,106.496529 
	C514.337280,102.944153 504.204041,99.391777 493.509674,95.369637 
	C481.077393,92.410004 468.645142,89.450371 455.493500,86.197426 
	C448.389893,85.281517 441.286255,84.365608 433.380219,83.190109 
	C425.630737,83.034431 417.881287,82.878754 409.589264,82.035561 
	C404.644287,81.909691 399.663666,81.343544 394.760956,81.740181 
	C379.824127,82.948601 364.917328,84.528267 349.141541,85.899498 
	C341.306488,87.398865 333.364044,88.480225 325.652771,90.461357 
	C234.735336,113.819283 166.325119,166.618881 120.396492,248.378189 
	C107.060318,272.118439 97.143051,297.342529 90.805580,324.698761 
	C88.456635,338.126953 86.107681,351.555115 83.397652,365.703278 
	C82.931664,373.801788 82.465668,381.900269 81.768059,390.812347 
	C81.903358,399.876892 82.038658,408.941406 82.044479,418.900055 
	C83.316574,429.946899 84.588676,440.993744 85.827721,452.896149 
	C90.151344,470.044006 94.474960,487.191864 98.860352,505.084564 
	C100.547386,509.400696 102.234421,513.716797 103.957001,518.781738 
	C107.020645,525.855713 110.084290,532.929688 113.211868,540.699341 
	C115.422318,544.620361 117.632774,548.541443 119.911041,553.133484 
	C121.483383,555.798523 123.055725,558.463562 124.852150,561.812622 
	C129.799866,569.463684 134.747589,577.114746 139.927521,585.358948 
	C154.192108,605.467773 170.205521,624.003357 189.317108,640.596375 
	C196.731689,646.460022 204.146286,652.323730 211.963760,658.760498 
	C215.625793,661.220276 219.287827,663.680054 223.303101,666.709351 
	C227.863327,669.485596 232.423538,672.261841 237.345352,675.619995 
	C242.562073,678.418030 247.778778,681.216064 253.438965,684.540894 
	C258.935699,687.104126 264.432434,689.667297 270.393311,692.738403 
	C274.260925,694.438904 278.128571,696.139404 282.722565,698.049927 
	C290.800568,700.740906 298.878571,703.431885 307.485962,706.627258 
	C311.657074,707.725098 315.828186,708.822876 320.664368,710.296509 
	C330.109436,712.194275 339.554535,714.092041 349.650879,716.462585 
	C365.094757,717.791199 380.538666,719.119751 396.891937,720.666931 
	C423.797333,720.858337 450.413086,718.146606 476.490723,711.522034 
	C555.190369,691.529724 618.056458,648.341858 664.262695,581.519958 
	C692.336731,540.920105 709.860168,495.985840 716.916931,446.097748 
	C717.313721,440.406097 717.695984,434.713348 718.110901,429.023010 
	C718.670776,421.345032 719.255737,413.668915 719.991150,405.067963 
	C719.829224,397.703918 719.667297,390.339874 719.622131,382.180817 
	C718.760925,375.572693 717.904236,368.963959 717.037109,362.356628 
	C716.140869,355.527771 715.234436,348.700256 714.333008,341.045074 
	C713.277832,337.338654 712.222717,333.632233 711.072083,329.067902 
	C707.875793,317.332947 704.679443,305.598022 701.269287,293.127167 
	C699.629578,289.032013 697.989868,284.936829 696.258972,280.094727 
	C694.229492,275.618347 692.200012,271.141937 690.112244,265.953033 
	C686.468933,259.278778 682.825684,252.604538 678.873230,245.270798 
	C676.370605,240.790955 673.867981,236.311111 671.132935,231.162766 
	C666.169128,223.992920 661.453918,216.633682 656.174438,209.704376 
	C650.429321,202.163849 644.160278,195.022507 637.894958,187.091507 
	C625.340576,175.363266 612.786133,163.635010 599.895386,151.311386 
	C590.626648,144.792908 581.357849,138.274429 571.680969,131.207230 
	C566.259216,128.078171 560.837463,124.949112 554.948792,121.287743 
z"/>
<path fill="#C59E4E" opacity="1.000000" stroke="none" 
	d="
M395.982544,720.448364 
	C380.538666,719.119751 365.094757,717.791199 349.555359,715.951782 
	C351.318878,714.847656 353.203949,714.324280 355.029938,713.642456 
	C357.021301,712.898865 359.927856,712.546509 360.739410,711.083069 
	C363.334351,706.403748 367.615356,704.511536 371.835480,701.833435 
	C379.834534,696.756958 387.186646,690.602966 394.515411,684.543335 
	C403.199585,677.362976 411.551422,669.781738 420.090546,662.424561 
	C431.403839,652.677185 442.708130,642.918274 454.112793,633.278503 
	C462.923035,625.831604 471.977203,618.671875 480.742981,611.174072 
	C487.348816,605.523804 493.502747,599.341614 500.157288,593.752869 
	C509.662201,585.770142 519.501465,578.186340 529.054260,570.259094 
	C531.100342,568.561218 532.532104,566.123169 534.246887,564.026123 
	C531.373108,562.689514 528.622131,560.731873 525.602112,560.134766 
	C517.125427,558.458679 508.537781,557.343628 499.631470,555.915833 
	C495.181427,554.546936 491.093750,553.269592 486.741638,551.779602 
	C479.668671,547.028809 472.860199,542.490601 465.850769,537.688293 
	C463.139771,534.612366 460.629700,531.800476 457.983093,528.673340 
	C453.614868,522.859070 449.383148,517.360168 445.023163,511.542053 
	C441.677704,506.452972 438.460510,501.683136 435.091248,496.598755 
	C431.951355,491.532166 428.963470,486.780090 425.845947,481.709290 
	C422.506958,476.578186 419.297607,471.765778 415.998352,466.612793 
	C411.267944,458.515472 406.627411,450.758789 401.866516,442.678314 
	C396.870026,436.319641 392.432556,429.846375 386.978638,424.388947 
	C382.634369,420.041901 381.825317,418.292847 385.424744,413.052551 
	C390.892731,405.091858 398.555695,400.081207 407.014282,395.786285 
	C418.818390,389.792664 428.776489,381.409973 435.217041,369.689972 
	C447.532013,347.280029 447.279083,323.843811 439.884338,299.646423 
	C437.085785,290.689606 432.417358,283.306030 425.669525,276.842529 
	C421.325531,273.684631 417.183838,270.788849 412.789978,267.662689 
	C409.052521,265.905273 405.567261,264.378265 401.766327,262.664276 
	C390.346191,258.084839 378.589661,258.869843 366.554443,258.106934 
	C360.062744,258.074951 354.040283,258.077454 347.548401,258.059387 
	C328.052368,258.025055 309.025696,258.011292 289.627502,257.869629 
	C287.784454,257.577209 286.309875,257.247131 284.842072,257.275024 
	C275.238922,257.457581 265.637268,257.717529 256.031677,257.487549 
	C256.036255,253.223053 256.045013,249.423233 256.052063,245.623398 
	C256.057739,242.574799 257.587738,241.065796 260.631989,241.049240 
	C264.431824,241.028564 268.231567,240.988342 272.496674,240.962646 
	C288.318481,240.959213 303.674988,240.949677 319.496857,240.950012 
	C336.321075,240.944763 352.679901,240.929657 369.503418,240.930450 
	C378.311005,240.966934 386.653870,240.987518 395.418365,241.051147 
	C402.242615,241.679871 408.645233,242.265533 415.452698,242.911636 
	C423.929810,244.924011 432.002167,246.875977 440.419312,248.939056 
	C448.989136,253.799179 457.214172,258.548157 465.661438,263.556458 
	C477.989624,274.626495 485.498657,288.112183 488.617371,303.944061 
	C491.457855,318.363220 490.910675,332.758820 486.917358,347.310059 
	C481.021332,364.301086 471.182953,378.095703 456.871094,388.311310 
	C449.073425,393.877197 440.584381,398.510895 432.209229,403.212494 
	C429.052032,404.984833 428.103577,406.403534 430.222656,409.661743 
	C436.551575,419.392822 442.676758,429.256409 449.026794,439.381165 
	C451.720581,443.549377 454.269073,447.404724 456.937744,451.579102 
	C460.655090,457.295685 464.252197,462.693176 467.979004,468.410095 
	C470.738678,472.486511 473.368683,476.243591 476.163879,480.294861 
	C478.854279,484.078979 481.379486,487.568848 484.062683,491.360107 
	C490.477295,499.777008 496.733887,507.892517 503.176727,516.280396 
	C505.232605,518.708862 507.102234,520.864990 509.165588,523.291321 
	C516.124695,531.135315 523.404785,538.048828 533.271423,542.207397 
	C535.786865,543.482117 538.132629,544.372375 540.251404,545.641479 
	C542.454102,546.960938 544.740601,548.369507 546.446655,550.236084 
	C549.094543,553.133301 551.499329,553.367188 554.352905,550.601807 
	C560.446228,544.696899 566.598083,538.850769 572.819641,533.081543 
	C573.877563,532.100525 575.423462,531.659241 576.704712,530.902161 
	C578.266235,529.979492 579.951233,529.174683 581.297791,527.993896 
	C590.973389,519.509705 600.566223,510.931000 610.213318,502.414124 
	C611.826172,500.990295 613.673706,499.826477 615.244446,498.361877 
	C621.619873,492.417145 627.920959,486.392761 634.277832,480.427979 
	C634.872437,479.870026 635.734253,479.603455 636.357117,479.068054 
	C642.372375,473.898071 648.404419,468.746307 654.341675,463.487640 
	C656.944214,461.182556 659.162231,458.423370 661.861206,456.250916 
	C669.589600,450.030121 678.337036,444.822662 685.093201,437.706604 
	C694.843018,427.437347 707.692749,420.431946 715.567993,408.256409 
	C716.331238,407.076416 718.378540,406.726959 719.829834,405.991974 
	C719.255737,413.668915 718.670776,421.345032 718.110901,429.023010 
	C717.695984,434.713348 717.313721,440.406097 716.494141,446.698029 
	C715.033569,449.451538 714.088379,451.655823 712.936523,453.746246 
	C711.139771,457.006836 709.919373,461.172394 707.162720,463.183167 
	C702.680847,466.452332 699.091980,469.692230 697.552734,475.250519 
	C696.981384,477.313507 694.586853,478.871582 692.790710,480.926605 
	C691.180359,478.351166 690.303406,476.948700 689.958130,476.396484 
	C686.997742,479.567719 684.866699,483.683777 681.648315,484.883942 
	C676.344116,486.861938 673.952087,489.887360 672.942139,495.161072 
	C671.924500,500.474976 669.740356,501.590454 664.069946,501.154327 
	C663.212402,501.088379 662.175354,501.636932 661.426331,502.182648 
	C658.614319,504.231720 655.688232,506.189392 653.187561,508.581421 
	C650.953735,510.718201 648.465576,513.097290 647.422485,515.870789 
	C644.798462,522.847595 645.019409,523.013672 637.847412,521.543030 
	C636.379822,524.288086 634.850952,527.147827 633.408569,529.845764 
	C623.692810,529.028687 623.423584,538.590271 618.721680,543.466858 
	C617.441406,542.044922 616.394714,540.882385 615.700500,540.111328 
	C611.814758,543.976501 608.108765,547.574158 604.516296,551.281860 
	C603.161560,552.680054 601.693359,554.166260 600.925049,555.899597 
	C598.002014,562.493713 588.831848,561.766724 586.230164,568.641479 
	C586.167847,568.806213 585.607666,568.850830 585.284119,568.838318 
	C578.155701,568.562073 575.353333,573.100830 573.868896,579.091370 
	C573.025818,582.493652 571.470093,584.667175 567.380676,584.637878 
	C565.741760,584.626099 564.037842,586.349854 562.458984,587.423950 
	C560.981689,588.428955 559.621216,589.607788 558.226257,590.731262 
	C555.771240,592.708435 552.692444,594.280518 551.033752,596.788696 
	C548.651550,600.390930 546.815308,603.934448 543.590942,602.936890 
	C540.571899,606.033447 538.800049,608.687622 536.329407,610.201660 
	C531.889099,612.922791 527.718018,615.148071 526.191467,621.013550 
	C525.434814,623.920898 523.728638,629.502136 517.837341,626.211182 
	C517.512329,626.029663 516.715820,626.712341 516.130249,626.973633 
	C513.789551,628.018616 511.352753,628.891968 509.132355,630.148499 
	C507.377838,631.141418 505.362274,632.294800 504.408020,633.928955 
	C503.101898,636.165771 502.647461,638.912903 501.907837,641.464478 
	C500.909790,644.907776 499.231720,647.417908 494.662933,647.090759 
	C495.082031,644.870728 495.441254,642.967834 495.800476,641.064941 
	C495.319000,640.867615 494.837555,640.670227 494.356079,640.472900 
	C493.296021,642.669495 492.087219,644.808594 491.209534,647.075745 
	C489.759308,650.821777 489.557770,655.635925 483.479340,654.807190 
	C482.932983,654.732666 481.912506,655.638184 481.663422,656.297058 
	C480.327393,659.830261 477.671936,660.851562 474.177765,660.828552 
	C473.442963,660.823669 472.701691,661.803589 471.639130,662.560791 
	C473.080292,663.235352 474.052124,663.690247 475.981293,664.593262 
	C474.162720,665.693909 473.000824,667.011414 471.906250,666.957642 
	C465.845245,666.659912 462.160309,670.103821 459.064545,674.584961 
	C454.777222,680.790833 448.539673,684.752686 442.239716,688.340942 
	C439.451691,689.928894 437.145020,690.870911 436.637329,694.399170 
	C436.426208,695.866516 434.998291,697.158875 434.032990,698.672974 
	C432.273804,697.014160 431.141235,695.946167 429.080200,694.002686 
	C426.995850,703.255005 420.240479,704.832214 412.658997,704.479553 
	C415.310211,714.016113 415.240662,713.649780 406.349731,715.337952 
	C402.702087,716.030579 399.427094,718.685913 395.982544,720.448364 
z"/>
<path fill="#F0DC84" opacity="1.000000" stroke="none" 
	d="
M439.930695,300.012817 
	C447.279083,323.843811 447.532013,347.280029 435.217041,369.689972 
	C428.776489,381.409973 418.818390,389.792664 407.014282,395.786285 
	C398.555695,400.081207 390.892731,405.091858 385.424744,413.052551 
	C381.825317,418.292847 382.634369,420.041901 386.978638,424.388947 
	C392.432556,429.846375 396.870026,436.319641 401.550293,442.796173 
	C400.912262,443.467834 400.339752,443.589813 400.046722,443.943420 
	C388.744690,457.580872 372.926056,466.940094 363.583710,482.451447 
	C362.573944,484.127991 361.027832,485.522064 359.579865,486.887421 
	C351.713348,494.304901 343.598663,501.470581 335.942291,509.097260 
	C317.795502,527.173767 300.162537,545.775208 281.754303,563.577576 
	C261.810516,582.864929 243.964767,604.321350 222.012756,621.535767 
	C221.104218,622.248230 220.158737,623.069580 219.604172,624.051331 
	C216.675415,629.236084 212.673874,632.838440 206.630157,634.078613 
	C205.417221,634.327515 204.175949,635.800415 203.490906,637.015259 
	C201.023117,641.391296 197.579529,642.536316 192.954712,640.856567 
	C191.715408,640.406372 190.364853,640.262512 189.065369,639.978027 
	C170.205521,624.003357 154.192108,605.467773 139.854065,584.600342 
	C139.735367,581.846497 139.668365,579.851562 139.649368,577.856140 
	C139.609421,573.661438 140.494629,570.375854 145.634949,569.674866 
	C147.239944,569.456055 148.728073,567.528748 150.030762,566.156616 
	C151.717468,564.380005 153.019821,562.232910 154.738098,560.492615 
	C169.700668,545.338745 185.308975,530.929932 201.825912,517.427917 
	C213.874924,507.578217 224.831390,496.400269 236.405624,485.959351 
	C248.507980,475.042023 261.061829,464.609100 272.879791,453.396820 
	C286.608978,440.371185 299.658447,426.631348 313.245667,413.451752 
	C315.452545,411.311127 318.916260,410.466217 321.854431,409.430176 
	C323.178680,421.994171 332.627075,430.437469 345.243439,430.689423 
	C355.307922,430.890411 364.991913,422.036316 366.637970,411.128357 
	C368.413086,399.365265 360.868958,389.625549 347.048492,385.444214 
	C350.584839,380.820648 353.682129,376.114532 357.684326,372.377502 
	C368.590820,362.193817 379.965698,352.513733 390.981171,342.443939 
	C396.607330,337.300781 401.194977,330.743835 407.435455,326.614166 
	C417.274231,320.103241 425.420349,311.961578 433.749390,303.863525 
	C435.450104,302.209961 437.852020,301.277618 439.930695,300.012817 
z"/>
<path fill="#C29A4B" opacity="1.000000" stroke="none" 
	d="
M396.437256,720.557617 
	C399.427094,718.685913 402.702087,716.030579 406.349731,715.337952 
	C415.240662,713.649780 415.310211,714.016113 412.658997,704.479553 
	C420.240479,704.832214 426.995850,703.255005 429.080200,694.002686 
	C431.141235,695.946167 432.273804,697.014160 434.032990,698.672974 
	C434.998291,697.158875 436.426208,695.866516 436.637329,694.399170 
	C437.145020,690.870911 439.451691,689.928894 442.239716,688.340942 
	C448.539673,684.752686 454.777222,680.790833 459.064545,674.584961 
	C462.160309,670.103821 465.845245,666.659912 471.906250,666.957642 
	C473.000824,667.011414 474.162720,665.693909 475.981293,664.593262 
	C474.052124,663.690247 473.080292,663.235352 471.639130,662.560791 
	C472.701691,661.803589 473.442963,660.823669 474.177765,660.828552 
	C477.671936,660.851562 480.327393,659.830261 481.663422,656.297058 
	C481.912506,655.638184 482.932983,654.732666 483.479340,654.807190 
	C489.557770,655.635925 489.759308,650.821777 491.209534,647.075745 
	C492.087219,644.808594 493.296021,642.669495 494.356079,640.472900 
	C494.837555,640.670227 495.319000,640.867615 495.800476,641.064941 
	C495.441254,642.967834 495.082031,644.870728 494.662933,647.090759 
	C499.231720,647.417908 500.909790,644.907776 501.907837,641.464478 
	C502.647461,638.912903 503.101898,636.165771 504.408020,633.928955 
	C505.362274,632.294800 507.377838,631.141418 509.132355,630.148499 
	C511.352753,628.891968 513.789551,628.018616 516.130249,626.973633 
	C516.715820,626.712341 517.512329,626.029663 517.837341,626.211182 
	C523.728638,629.502136 525.434814,623.920898 526.191467,621.013550 
	C527.718018,615.148071 531.889099,612.922791 536.329407,610.201660 
	C538.800049,608.687622 540.571899,606.033447 543.590942,602.936890 
	C546.815308,603.934448 548.651550,600.390930 551.033752,596.788696 
	C552.692444,594.280518 555.771240,592.708435 558.226257,590.731262 
	C559.621216,589.607788 560.981689,588.428955 562.458984,587.423950 
	C564.037842,586.349854 565.741760,584.626099 567.380676,584.637878 
	C571.470093,584.667175 573.025818,582.493652 573.868896,579.091370 
	C575.353333,573.100830 578.155701,568.562073 585.284119,568.838318 
	C585.607666,568.850830 586.167847,568.806213 586.230164,568.641479 
	C588.831848,561.766724 598.002014,562.493713 600.925049,555.899597 
	C601.693359,554.166260 603.161560,552.680054 604.516296,551.281860 
	C608.108765,547.574158 611.814758,543.976501 615.700500,540.111328 
	C616.394714,540.882385 617.441406,542.044922 618.721680,543.466858 
	C623.423584,538.590271 623.692810,529.028687 633.408569,529.845764 
	C634.850952,527.147827 636.379822,524.288086 637.847412,521.543030 
	C645.019409,523.013672 644.798462,522.847595 647.422485,515.870789 
	C648.465576,513.097290 650.953735,510.718201 653.187561,508.581421 
	C655.688232,506.189392 658.614319,504.231720 661.426331,502.182648 
	C662.175354,501.636932 663.212402,501.088379 664.069946,501.154327 
	C669.740356,501.590454 671.924500,500.474976 672.942139,495.161072 
	C673.952087,489.887360 676.344116,486.861938 681.648315,484.883942 
	C684.866699,483.683777 686.997742,479.567719 689.958130,476.396484 
	C690.303406,476.948700 691.180359,478.351166 692.790710,480.926605 
	C694.586853,478.871582 696.981384,477.313507 697.552734,475.250519 
	C699.091980,469.692230 702.680847,466.452332 707.162720,463.183167 
	C709.919373,461.172394 711.139771,457.006836 712.936523,453.746246 
	C714.088379,451.655823 715.033569,449.451538 716.369934,447.144012 
	C709.860168,495.985840 692.336731,540.920105 664.262695,581.519958 
	C618.056458,648.341858 555.190369,691.529724 476.490723,711.522034 
	C450.413086,718.146606 423.797333,720.858337 396.437256,720.557617 
z"/>
<path fill="#F0DC84" opacity="1.000000" stroke="none" 
	d="
M487.090424,346.990112 
	C490.910675,332.758820 491.457855,318.363220 488.617371,303.944061 
	C485.498657,288.112183 477.989624,274.626495 465.989868,263.347168 
	C476.968140,252.844696 487.873352,242.846268 498.685699,232.748428 
	C500.982239,230.603622 502.753052,227.888336 505.084808,225.790100 
	C518.792542,213.455246 532.638855,201.274292 546.346497,188.939377 
	C553.216919,182.757050 559.716187,176.153259 566.718079,170.129196 
	C571.494690,166.019623 576.621277,162.203293 582.010925,158.951096 
	C587.598328,155.579575 592.903198,150.968948 600.231750,151.906754 
	C612.786133,163.635010 625.340576,175.363266 638.012451,187.804932 
	C638.266296,189.504196 638.100647,190.682251 638.586548,191.445511 
	C642.510437,197.608948 642.453186,202.958054 637.893982,209.324585 
	C635.086548,213.244797 633.806946,217.542587 627.958679,217.190887 
	C626.924561,217.128708 625.586731,217.710938 624.814087,218.443649 
	C620.723999,222.322205 616.772705,226.346924 612.767822,230.315414 
	C606.408142,236.617126 600.224365,243.111008 593.629211,249.155945 
	C587.557861,254.720795 580.911255,259.654144 574.762512,265.139618 
	C569.580505,269.762543 564.824768,274.860199 559.726135,279.581177 
	C557.671509,281.483673 554.970093,282.699677 552.967712,284.644714 
	C543.582031,293.761536 534.368408,303.055206 525.033875,312.225220 
	C514.258728,322.810577 503.463837,333.376892 492.560883,343.829773 
	C491.084473,345.245239 488.930603,345.954102 487.090424,346.990112 
z"/>
<path fill="#D6B664" opacity="1.000000" stroke="none" 
	d="
M289.999054,257.997559 
	C309.025696,258.011292 328.052368,258.025055 347.424469,258.368958 
	C345.614227,260.964966 343.607056,263.399597 341.268402,265.457550 
	C337.656158,268.636261 333.595520,271.324158 330.116516,274.631927 
	C320.250122,284.012665 310.968506,294.044342 300.731140,302.989380 
	C289.729553,312.602173 277.562988,320.891479 268.675140,332.782562 
	C266.394073,335.834412 264.141693,339.028778 261.317657,341.526184 
	C256.716766,345.594818 251.505753,348.968079 246.837311,352.967590 
	C243.086472,356.181000 239.692581,359.824646 236.267731,363.399506 
	C234.357391,365.393524 232.903107,367.844940 230.902466,369.728149 
	C225.242844,375.055573 219.192413,379.980316 213.689880,385.459290 
	C204.662659,394.447784 196.178116,403.987213 187.040909,412.857758 
	C175.240799,424.313477 162.983521,435.296967 151.001068,446.566742 
	C143.500122,453.621521 135.832520,460.537628 128.792877,468.035339 
	C118.040627,479.487183 105.352386,489.401947 98.798576,504.339722 
	C94.474960,487.191864 90.151344,470.044006 86.130898,452.268188 
	C87.375145,449.732147 88.169685,447.731964 89.295776,445.940155 
	C90.594254,443.874084 91.991714,440.526428 93.685417,440.302612 
	C98.916397,439.611389 100.002502,435.473694 102.242516,432.149506 
	C103.534439,430.232269 104.701385,428.121643 106.374123,426.588562 
	C114.807373,418.859528 123.424797,411.331970 131.909058,403.657990 
	C144.180222,392.558716 156.406616,381.409790 168.618942,370.245789 
	C171.299301,367.795502 173.770676,365.116211 176.457581,362.673645 
	C188.968719,351.300201 201.558472,340.013000 214.045273,328.612976 
	C220.971817,322.289307 227.657715,315.700745 234.621719,309.419678 
	C242.732849,302.103912 251.038345,295.003845 259.243011,287.791473 
	C268.082794,280.020782 276.980316,272.312561 285.670746,264.377869 
	C287.516571,262.692535 288.576874,260.146851 289.999054,257.997559 
z"/>
<path fill="#C59E4E" opacity="1.000000" stroke="none" 
	d="
M83.758743,364.983307 
	C86.107681,351.555115 88.456635,338.126953 91.282990,324.212341 
	C92.902954,322.154633 94.220970,320.680725 95.156693,318.994659 
	C98.608315,312.775452 101.817802,306.418579 105.399178,300.277313 
	C106.157318,298.977234 108.043182,298.261322 109.513168,297.468628 
	C111.325592,296.491180 113.924721,296.219208 115.005234,294.765991 
	C120.159286,287.834167 124.800331,280.522980 129.873260,273.527557 
	C131.587021,271.164337 133.868103,269.120789 136.183380,267.305389 
	C140.432312,263.973785 144.895798,260.915466 149.276352,257.752197 
	C152.169662,255.662918 155.162369,253.698593 157.936295,251.462143 
	C159.294495,250.367111 160.766312,248.952896 161.299881,247.381927 
	C162.866150,242.770477 166.280106,240.361252 170.144882,237.761719 
	C179.903519,231.197906 189.983154,224.873230 196.431671,214.460922 
	C197.308731,213.044769 199.130325,211.707550 200.742065,211.344910 
	C206.114639,210.136124 209.061401,206.427292 212.102646,202.276520 
	C214.016693,199.664139 217.255661,198.046021 219.794739,195.859314 
	C221.341583,194.527145 222.672195,192.946243 224.127594,191.504990 
	C226.977646,188.682617 229.646454,185.630432 232.756409,183.128479 
	C237.200363,179.553360 243.830765,177.366043 246.216141,172.840652 
	C251.085739,163.602356 260.553436,160.960815 267.387115,154.763046 
	C270.244812,152.171249 272.707336,149.149002 275.452454,146.426239 
	C277.968109,143.931061 280.531799,141.467575 283.244965,139.193726 
	C285.303467,137.468506 287.890656,136.327560 289.784241,134.461548 
	C293.983551,130.323334 297.814789,125.812851 301.983734,121.641731 
	C302.937592,120.687386 304.727570,120.630501 306.001282,119.923676 
	C312.140869,116.516579 318.311829,113.198845 322.574127,107.243805 
	C324.850494,104.063408 327.158966,100.535507 330.300354,98.426964 
	C335.722168,94.787781 341.844116,92.203461 347.574402,89.001373 
	C348.621460,88.416290 349.202637,86.997421 349.998840,85.963425 
	C364.917328,84.528267 379.824127,82.948601 394.760956,81.740181 
	C399.663666,81.343544 404.644287,81.909691 409.526398,82.567215 
	C405.301147,85.622818 400.846771,87.771248 397.029663,90.739220 
	C384.212677,100.704880 370.403381,109.438065 359.083344,121.293236 
	C356.468994,124.031197 353.043945,125.975441 350.205566,128.522964 
	C342.932739,135.050507 335.973419,141.938751 328.540863,148.274719 
	C310.622955,163.549057 292.483398,178.563187 274.486389,193.745270 
	C270.292511,197.283173 266.379700,201.152802 262.216248,204.728546 
	C254.173965,211.635529 246.002808,218.392502 237.964340,225.303864 
	C229.934525,232.207764 221.957474,239.174683 214.039291,246.206299 
	C206.742920,252.685730 199.579575,259.314758 192.309677,265.824310 
	C188.728760,269.030670 185.077179,272.161072 181.391495,275.246887 
	C173.642853,281.734406 165.656158,287.951874 158.120392,294.676025 
	C145.914017,305.567780 133.847382,316.626434 122.004219,327.911072 
	C114.954826,334.627991 108.881157,342.412323 101.558113,348.785187 
	C95.496536,354.060181 88.788200,358.575104 83.758743,364.983307 
z"/>
<path fill="#EBD57F" opacity="1.000000" stroke="none" 
	d="
M486.917358,347.310059 
	C488.930603,345.954102 491.084473,345.245239 492.560883,343.829773 
	C503.463837,333.376892 514.258728,322.810577 525.033875,312.225220 
	C534.368408,303.055206 543.582031,293.761536 552.967712,284.644714 
	C554.970093,282.699677 557.671509,281.483673 559.726135,279.581177 
	C564.824768,274.860199 569.580505,269.762543 574.762512,265.139618 
	C580.911255,259.654144 587.557861,254.720795 593.629211,249.155945 
	C600.224365,243.111008 606.408142,236.617126 612.767822,230.315414 
	C616.772705,226.346924 620.723999,222.322205 624.814087,218.443649 
	C625.586731,217.710938 626.924561,217.128708 627.958679,217.190887 
	C633.806946,217.542587 635.086548,213.244797 637.893982,209.324585 
	C642.453186,202.958054 642.510437,197.608948 638.586548,191.445511 
	C638.100647,190.682251 638.266296,189.504196 638.124878,188.112762 
	C644.160278,195.022507 650.429321,202.163849 656.174438,209.704376 
	C661.453918,216.633682 666.169128,223.992920 671.048828,231.829651 
	C670.028625,234.964722 669.693604,237.983841 668.036743,239.791260 
	C664.067017,244.121765 659.699646,248.167282 655.077881,251.800018 
	C649.496704,256.186829 643.456543,259.985992 637.679138,264.128784 
	C635.520569,265.676636 633.422302,267.350128 631.502014,269.181702 
	C620.560913,279.617188 609.819153,290.265289 598.751831,300.564087 
	C578.444946,319.460754 557.869934,338.069427 537.575623,356.979370 
	C521.912659,371.573792 506.506409,386.443726 490.988739,401.193970 
	C479.053619,412.538849 467.166077,423.934479 455.142151,435.184418 
	C453.383514,436.829865 450.984314,437.790680 448.881470,439.068268 
	C442.676758,429.256409 436.551575,419.392822 430.222656,409.661743 
	C428.103577,406.403534 429.052032,404.984833 432.209229,403.212494 
	C440.584381,398.510895 449.073425,393.877197 456.871094,388.311310 
	C471.182953,378.095703 481.021332,364.301086 486.917358,347.310059 
z"/>
<path fill="#C29A4B" opacity="1.000000" stroke="none" 
	d="
M349.570190,85.931465 
	C349.202637,86.997421 348.621460,88.416290 347.574402,89.001373 
	C341.844116,92.203461 335.722168,94.787781 330.300354,98.426964 
	C327.158966,100.535507 324.850494,104.063408 322.574127,107.243805 
	C318.311829,113.198845 312.140869,116.516579 306.001282,119.923676 
	C304.727570,120.630501 302.937592,120.687386 301.983734,121.641731 
	C297.814789,125.812851 293.983551,130.323334 289.784241,134.461548 
	C287.890656,136.327560 285.303467,137.468506 283.244965,139.193726 
	C280.531799,141.467575 277.968109,143.931061 275.452454,146.426239 
	C272.707336,149.149002 270.244812,152.171249 267.387115,154.763046 
	C260.553436,160.960815 251.085739,163.602356 246.216141,172.840652 
	C243.830765,177.366043 237.200363,179.553360 232.756409,183.128479 
	C229.646454,185.630432 226.977646,188.682617 224.127594,191.504990 
	C222.672195,192.946243 221.341583,194.527145 219.794739,195.859314 
	C217.255661,198.046021 214.016693,199.664139 212.102646,202.276520 
	C209.061401,206.427292 206.114639,210.136124 200.742065,211.344910 
	C199.130325,211.707550 197.308731,213.044769 196.431671,214.460922 
	C189.983154,224.873230 179.903519,231.197906 170.144882,237.761719 
	C166.280106,240.361252 162.866150,242.770477 161.299881,247.381927 
	C160.766312,248.952896 159.294495,250.367111 157.936295,251.462143 
	C155.162369,253.698593 152.169662,255.662918 149.276352,257.752197 
	C144.895798,260.915466 140.432312,263.973785 136.183380,267.305389 
	C133.868103,269.120789 131.587021,271.164337 129.873260,273.527557 
	C124.800331,280.522980 120.159286,287.834167 115.005234,294.765991 
	C113.924721,296.219208 111.325592,296.491180 109.513168,297.468628 
	C108.043182,298.261322 106.157318,298.977234 105.399178,300.277313 
	C101.817802,306.418579 98.608315,312.775452 95.156693,318.994659 
	C94.220970,320.680725 92.902954,322.154633 91.455963,323.864777 
	C97.143051,297.342529 107.060318,272.118439 120.396492,248.378189 
	C166.325119,166.618881 234.735336,113.819283 325.652771,90.461357 
	C333.364044,88.480225 341.306488,87.398865 349.570190,85.931465 
z"/>
<path fill="#DFC471" opacity="1.000000" stroke="none" 
	d="
M367.023712,258.141418 
	C378.589661,258.869843 390.346191,258.084839 401.566620,262.948822 
	C397.604034,267.573303 393.710327,271.928833 389.416473,275.845703 
	C364.985870,298.131256 340.342804,320.184998 316.010101,342.576355 
	C301.466156,355.959900 287.315155,369.772369 273.063446,383.471008 
	C253.533493,402.243225 234.107391,421.123444 214.577332,439.895508 
	C197.094391,456.699829 179.482498,473.370117 162.018723,490.194275 
	C148.779129,502.948975 135.608337,515.777588 122.573128,528.740417 
	C119.116371,532.178040 116.272957,536.232483 113.147919,540.003662 
	C110.084290,532.929688 107.020645,525.855713 104.194061,518.149780 
	C105.658829,514.664062 106.270935,511.258820 108.235756,509.065277 
	C113.106102,503.628143 118.562111,498.710846 123.840370,493.644684 
	C148.323334,470.145599 172.915466,446.759308 197.274109,423.132263 
	C206.106323,414.565308 214.188675,405.227295 222.982697,396.618591 
	C237.099350,382.799530 251.512436,369.282928 265.824615,355.664093 
	C269.798004,351.883209 273.969757,348.305481 277.852753,344.436096 
	C284.787201,337.525909 291.406372,330.293274 298.460114,323.510315 
	C307.196472,315.109344 316.223724,307.010010 325.158569,298.816620 
	C331.034760,293.428070 336.999878,288.136475 342.870941,282.742371 
	C350.442810,275.785645 357.997314,268.808685 365.451904,261.727356 
	C366.324188,260.898743 366.516266,259.354126 367.023712,258.141418 
z"/>
<path fill="#EBD57F" opacity="1.000000" stroke="none" 
	d="
M439.884338,299.646423 
	C437.852020,301.277618 435.450104,302.209961 433.749390,303.863525 
	C425.420349,311.961578 417.274231,320.103241 407.435455,326.614166 
	C401.194977,330.743835 396.607330,337.300781 390.981171,342.443939 
	C379.965698,352.513733 368.590820,362.193817 357.684326,372.377502 
	C353.682129,376.114532 350.584839,380.820648 346.608215,385.474640 
	C331.147461,386.249908 322.976624,394.023010 321.799042,409.022400 
	C318.916260,410.466217 315.452545,411.311127 313.245667,413.451752 
	C299.658447,426.631348 286.608978,440.371185 272.879791,453.396820 
	C261.061829,464.609100 248.507980,475.042023 236.405624,485.959351 
	C224.831390,496.400269 213.874924,507.578217 201.825912,517.427917 
	C185.308975,530.929932 169.700668,545.338745 154.738098,560.492615 
	C153.019821,562.232910 151.717468,564.380005 150.030762,566.156616 
	C148.728073,567.528748 147.239944,569.456055 145.634949,569.674866 
	C140.494629,570.375854 139.609421,573.661438 139.649368,577.856140 
	C139.668365,579.851562 139.735367,581.846497 139.737961,584.303711 
	C134.747589,577.114746 129.799866,569.463684 125.040115,561.283081 
	C129.695663,555.455017 133.706665,549.672058 138.717270,544.949585 
	C153.216156,531.284424 168.255646,518.194336 182.828888,504.606049 
	C207.040604,482.030823 231.084610,459.275391 255.142776,436.536072 
	C279.705658,413.319824 304.196350,390.027222 328.727875,366.777771 
	C335.230286,360.615173 341.750000,354.470581 348.290680,348.348602 
	C362.873352,334.699432 377.395813,320.984406 392.093475,307.459961 
	C403.232208,297.210358 414.603790,287.213837 425.871796,277.104706 
	C432.417358,283.306030 437.085785,290.689606 439.884338,299.646423 
z"/>
<path fill="#D6B664" opacity="1.000000" stroke="none" 
	d="
M502.990479,516.007996 
	C496.733887,507.892517 490.477295,499.777008 484.423279,491.292633 
	C490.855865,486.012939 497.266113,481.311554 503.273254,476.141785 
	C512.069519,468.571625 520.514282,460.594666 529.228699,452.927246 
	C535.441345,447.460999 541.891785,442.265869 548.157715,436.859009 
	C552.037354,433.511353 555.827026,430.054016 559.558228,426.540924 
	C570.063965,416.649139 580.332275,406.496887 591.037598,396.827423 
	C606.578613,382.790161 622.557068,369.237122 638.091125,355.192291 
	C650.704712,343.787903 662.960144,331.986359 675.332642,320.316650 
	C681.861084,314.158997 688.364624,307.971832 694.746948,301.663971 
	C697.182922,299.256439 699.248718,296.474426 701.483154,293.863098 
	C704.679443,305.598022 707.875793,317.332947 710.851990,329.712219 
	C708.193726,333.297119 705.984253,336.469482 703.278625,339.139069 
	C690.138245,352.104767 676.900146,364.972321 663.618652,377.793793 
	C659.216858,382.043091 654.652588,386.131958 650.040100,390.153564 
	C639.144958,399.653137 628.112366,408.995667 617.254211,418.537018 
	C605.291626,429.048828 593.525452,439.784515 581.549011,450.280304 
	C574.933899,456.077515 567.945129,461.448273 561.331726,467.247314 
	C546.080322,480.620636 531.048340,494.245514 515.713440,507.521210 
	C511.889404,510.831757 507.253357,513.204346 502.990479,516.007996 
z"/>
<path fill="#CDA858" opacity="1.000000" stroke="none" 
	d="
M272.031342,240.956543 
	C268.231567,240.988342 264.431824,241.028564 260.631989,241.049240 
	C257.587738,241.065796 256.057739,242.574799 256.052063,245.623398 
	C256.045013,249.423233 256.036255,253.223053 255.758820,257.688080 
	C243.633575,268.759735 231.760895,279.147095 219.926971,289.578430 
	C209.613983,298.669037 199.356476,307.822632 189.051468,316.922363 
	C183.330734,321.973999 177.466400,326.866852 171.835953,332.016266 
	C159.241379,343.534821 146.829941,355.254211 134.196182,366.729156 
	C124.411064,375.616699 113.768364,383.655182 104.693344,393.199249 
	C97.478477,400.787048 88.184494,406.698578 83.715874,416.781128 
	C83.480247,417.312775 82.700432,417.603210 82.173950,418.005951 
	C82.038658,408.941406 81.903358,399.876892 82.162308,390.220642 
	C85.785439,385.682678 88.813698,381.545868 92.315613,377.858948 
	C94.550140,375.506439 97.656227,374.006927 100.077171,371.801819 
	C109.469337,363.246765 118.733902,354.551758 128.065811,345.930328 
	C132.809052,341.548187 137.617310,337.236328 142.355408,332.848633 
	C149.154022,326.552856 155.771545,320.052795 162.736511,313.948151 
	C168.663071,308.753632 175.209610,304.258301 181.052917,298.978882 
	C189.025757,291.775482 196.454712,283.971619 204.393250,276.728088 
	C208.013000,273.425232 212.509476,271.096863 216.229752,267.887726 
	C223.492523,261.622772 230.479767,255.038879 237.602646,248.610916 
	C239.320602,247.060562 241.227280,245.708923 242.866806,244.083939 
	C248.404022,238.595947 253.500259,232.600113 259.432739,227.588791 
	C268.048828,220.310516 277.322662,213.816727 286.166321,206.799698 
	C291.362854,202.676468 296.429535,198.358383 301.265778,193.820129 
	C307.286194,188.170715 312.481293,181.522049 318.963470,176.508072 
	C335.235046,163.922012 351.378479,151.242249 365.906372,136.625656 
	C366.608032,135.919724 367.391388,135.289932 368.170349,134.666687 
	C382.688965,123.050186 397.130676,111.335236 411.773895,99.877823 
	C418.029907,94.982887 424.718231,90.641617 431.185181,86.013924 
	C432.250488,85.251610 433.186768,84.308998 434.182648,83.449707 
	C441.286255,84.365608 448.389893,85.281517 455.631622,86.645493 
	C452.822906,88.915779 449.708344,90.516396 446.957947,92.598145 
	C434.281982,102.192421 421.533783,111.704842 409.151184,121.668793 
	C399.107300,129.750900 389.626373,138.528412 379.749634,146.823486 
	C369.066956,155.795425 358.215363,164.566254 347.436157,173.423264 
	C338.312439,180.920029 329.056061,188.262054 320.094635,195.948029 
	C308.386292,205.990021 296.777039,216.157333 285.398163,226.569077 
	C280.584503,230.973602 276.465881,236.137695 272.031342,240.956543 
z"/>
<path fill="#CDA858" opacity="1.000000" stroke="none" 
	d="
M533.002014,541.989502 
	C523.404785,538.048828 516.124695,531.135315 509.541199,523.260681 
	C511.108795,522.455994 512.751526,522.271118 513.838013,521.395813 
	C520.282410,516.203796 526.688660,510.956207 532.934448,505.528015 
	C541.340881,498.222107 549.533813,490.670929 557.921143,483.342682 
	C568.549927,474.056091 579.326721,464.938904 589.950378,455.646545 
	C595.188293,451.064972 600.106812,446.115875 605.383606,441.581757 
	C612.050049,435.853607 619.068787,430.533264 625.694946,424.760803 
	C637.213196,414.726440 648.562012,404.497101 659.953796,394.318085 
	C670.467651,384.923553 681.183228,375.736877 691.362000,365.990753 
	C699.372559,358.320679 706.700989,349.938171 714.332458,341.872162 
	C715.234436,348.700256 716.140869,355.527771 717.037109,362.356628 
	C717.904236,368.963959 718.760925,375.572693 719.244690,382.648193 
	C717.607117,383.888153 716.168213,384.471161 715.115295,385.463654 
	C707.264465,392.863953 699.588562,400.452087 691.660522,407.767517 
	C685.326660,413.612000 678.737061,419.180969 672.221985,424.827240 
	C658.546082,436.679443 644.763000,448.409546 631.181824,460.369019 
	C621.978149,468.473663 613.216370,477.083771 603.940674,485.101898 
	C594.291199,493.443024 584.236572,501.314178 574.405212,509.446625 
	C565.581787,516.745361 556.928040,524.253479 547.989319,531.406799 
	C543.223022,535.221069 538.012207,538.479980 533.002014,541.989502 
z"/>
<path fill="#C9A354" opacity="1.000000" stroke="none" 
	d="
M433.781433,83.319908 
	C433.186768,84.308998 432.250488,85.251610 431.185181,86.013924 
	C424.718231,90.641617 418.029907,94.982887 411.773895,99.877823 
	C397.130676,111.335236 382.688965,123.050186 368.170349,134.666687 
	C367.391388,135.289932 366.608032,135.919724 365.906372,136.625656 
	C351.378479,151.242249 335.235046,163.922012 318.963470,176.508072 
	C312.481293,181.522049 307.286194,188.170715 301.265778,193.820129 
	C296.429535,198.358383 291.362854,202.676468 286.166321,206.799698 
	C277.322662,213.816727 268.048828,220.310516 259.432739,227.588791 
	C253.500259,232.600113 248.404022,238.595947 242.866806,244.083939 
	C241.227280,245.708923 239.320602,247.060562 237.602646,248.610916 
	C230.479767,255.038879 223.492523,261.622772 216.229752,267.887726 
	C212.509476,271.096863 208.013000,273.425232 204.393250,276.728088 
	C196.454712,283.971619 189.025757,291.775482 181.052917,298.978882 
	C175.209610,304.258301 168.663071,308.753632 162.736511,313.948151 
	C155.771545,320.052795 149.154022,326.552856 142.355408,332.848633 
	C137.617310,337.236328 132.809052,341.548187 128.065811,345.930328 
	C118.733902,354.551758 109.469337,363.246765 100.077171,371.801819 
	C97.656227,374.006927 94.550140,375.506439 92.315613,377.858948 
	C88.813698,381.545868 85.785439,385.682678 82.278122,389.813843 
	C82.465668,381.900269 82.931664,373.801788 83.578201,365.343292 
	C88.788200,358.575104 95.496536,354.060181 101.558113,348.785187 
	C108.881157,342.412323 114.954826,334.627991 122.004219,327.911072 
	C133.847382,316.626434 145.914017,305.567780 158.120392,294.676025 
	C165.656158,287.951874 173.642853,281.734406 181.391495,275.246887 
	C185.077179,272.161072 188.728760,269.030670 192.309677,265.824310 
	C199.579575,259.314758 206.742920,252.685730 214.039291,246.206299 
	C221.957474,239.174683 229.934525,232.207764 237.964340,225.303864 
	C246.002808,218.392502 254.173965,211.635529 262.216248,204.728546 
	C266.379700,201.152802 270.292511,197.283173 274.486389,193.745270 
	C292.483398,178.563187 310.622955,163.549057 328.540863,148.274719 
	C335.973419,141.938751 342.932739,135.050507 350.205566,128.522964 
	C353.043945,125.975441 356.468994,124.031197 359.083344,121.293236 
	C370.403381,109.438065 384.212677,100.704880 397.029663,90.739220 
	C400.846771,87.771248 405.301147,85.622818 409.797668,82.910973 
	C417.881287,82.878754 425.630737,83.034431 433.781433,83.319908 
z"/>
<path fill="#E3CA76" opacity="1.000000" stroke="none" 
	d="
M467.849304,468.090698 
	C464.252197,462.693176 460.655090,457.295685 457.197083,451.330292 
	C469.492065,439.408630 481.650269,428.057343 493.802643,416.699738 
	C498.421600,412.382874 503.156067,408.179840 507.611572,403.699860 
	C516.322754,394.940826 524.709717,385.854919 533.538208,377.218475 
	C542.696167,368.259674 552.186707,359.639099 561.591187,350.934814 
	C567.939392,345.059296 574.404419,339.310242 580.792114,333.477234 
	C588.894226,326.078796 597.038940,318.724915 605.041016,311.219330 
	C614.247681,302.583923 623.195984,293.668976 632.527588,285.173187 
	C635.136963,282.797546 639.101379,281.926117 641.762207,279.588440 
	C654.364990,268.516327 666.731628,257.175446 679.182373,245.930298 
	C682.825684,252.604538 686.468933,259.278778 689.946777,266.607941 
	C684.987732,272.075317 680.354858,277.062469 675.360962,281.657410 
	C668.639954,287.841461 661.528931,293.600891 654.784424,299.760590 
	C641.675537,311.732697 629.910095,324.990204 615.758789,336.051178 
	C597.898804,350.011017 581.744263,366.157806 564.928223,381.442841 
	C562.364990,383.772736 560.381592,386.740295 557.819275,389.071411 
	C551.078064,395.204285 544.090759,401.066284 537.340027,407.188965 
	C528.476440,415.227936 519.787476,423.459167 510.945282,431.522003 
	C502.742615,439.001801 494.565277,446.518524 486.133362,453.734558 
	C480.251282,458.768372 473.958588,463.322327 467.849304,468.090698 
z"/>
<path fill="#D1AE5E" opacity="1.000000" stroke="none" 
	d="
M272.496674,240.962646 
	C276.465881,236.137695 280.584503,230.973602 285.398163,226.569077 
	C296.777039,216.157333 308.386292,205.990021 320.094635,195.948029 
	C329.056061,188.262054 338.312439,180.920029 347.436157,173.423264 
	C358.215363,164.566254 369.066956,155.795425 379.749634,146.823486 
	C389.626373,138.528412 399.107300,129.750900 409.151184,121.668793 
	C421.533783,111.704842 434.281982,102.192421 446.957947,92.598145 
	C449.708344,90.516396 452.822906,88.915779 455.991302,86.792160 
	C468.645142,89.450371 481.077393,92.410004 493.566467,95.873642 
	C489.972565,98.668373 486.215088,100.806839 482.691010,103.278114 
	C471.701019,110.984932 460.547302,118.491539 449.934357,126.693413 
	C439.338715,134.881897 429.276917,143.765991 419.058655,152.436569 
	C409.043854,160.934509 399.074860,169.488159 389.184387,178.130249 
	C382.184479,184.246643 375.468750,190.691437 368.402008,196.727219 
	C362.736389,201.566315 356.576447,205.827164 350.916901,210.672852 
	C341.965576,218.336914 333.183685,226.203644 324.480774,234.149658 
	C322.363068,236.083206 320.832184,238.659439 319.031464,240.940155 
	C303.674988,240.949677 288.318481,240.959213 272.496674,240.962646 
z"/>
<path fill="#EBD57F" opacity="1.000000" stroke="none" 
	d="
M189.191238,640.287231 
	C190.364853,640.262512 191.715408,640.406372 192.954712,640.856567 
	C197.579529,642.536316 201.023117,641.391296 203.490906,637.015259 
	C204.175949,635.800415 205.417221,634.327515 206.630157,634.078613 
	C212.673874,632.838440 216.675415,629.236084 219.604172,624.051331 
	C220.158737,623.069580 221.104218,622.248230 222.012756,621.535767 
	C243.964767,604.321350 261.810516,582.864929 281.754303,563.577576 
	C300.162537,545.775208 317.795502,527.173767 335.942291,509.097260 
	C343.598663,501.470581 351.713348,494.304901 359.579865,486.887421 
	C361.027832,485.522064 362.573944,484.127991 363.583710,482.451447 
	C372.926056,466.940094 388.744690,457.580872 400.046722,443.943420 
	C400.339752,443.589813 400.912262,443.467834 401.670654,443.119965 
	C406.627411,450.758789 411.267944,458.515472 415.768341,466.861633 
	C413.698578,469.520264 411.881500,471.709595 409.821289,473.639313 
	C395.141785,487.388885 380.309265,500.976624 365.730591,514.831787 
	C352.946960,526.980896 340.410248,539.390442 327.813873,551.735352 
	C325.444214,554.057617 323.290375,556.602234 321.066498,559.070862 
	C314.749329,566.083191 308.885193,573.570679 302.059448,580.045349 
	C279.405487,601.534119 256.425446,622.679626 233.507034,643.888184 
	C231.714920,645.546631 229.444214,646.693542 227.372421,648.042114 
	C225.989838,648.942139 223.906769,649.446838 223.276077,650.701050 
	C220.793900,655.637329 216.327759,657.057007 211.560852,658.187439 
	C204.146286,652.323730 196.731689,646.460022 189.191238,640.287231 
z"/>
<path fill="#D1AE5E" opacity="1.000000" stroke="none" 
	d="
M82.109215,418.453003 
	C82.700432,417.603210 83.480247,417.312775 83.715874,416.781128 
	C88.184494,406.698578 97.478477,400.787048 104.693344,393.199249 
	C113.768364,383.655182 124.411064,375.616699 134.196182,366.729156 
	C146.829941,355.254211 159.241379,343.534821 171.835953,332.016266 
	C177.466400,326.866852 183.330734,321.973999 189.051468,316.922363 
	C199.356476,307.822632 209.613983,298.669037 219.926971,289.578430 
	C231.760895,279.147095 243.633575,268.759735 255.762268,258.152740 
	C265.637268,257.717529 275.238922,257.457581 284.842072,257.275024 
	C286.309875,257.247131 287.784454,257.577209 289.627502,257.869629 
	C288.576874,260.146851 287.516571,262.692535 285.670746,264.377869 
	C276.980316,272.312561 268.082794,280.020782 259.243011,287.791473 
	C251.038345,295.003845 242.732849,302.103912 234.621719,309.419678 
	C227.657715,315.700745 220.971817,322.289307 214.045273,328.612976 
	C201.558472,340.013000 188.968719,351.300201 176.457581,362.673645 
	C173.770676,365.116211 171.299301,367.795502 168.618942,370.245789 
	C156.406616,381.409790 144.180222,392.558716 131.909058,403.657990 
	C123.424797,411.331970 114.807373,418.859528 106.374123,426.588562 
	C104.701385,428.121643 103.534439,430.232269 102.242516,432.149506 
	C100.002502,435.473694 98.916397,439.611389 93.685417,440.302612 
	C91.991714,440.526428 90.594254,443.874084 89.295776,445.940155 
	C88.169685,447.731964 87.375145,449.732147 86.147423,451.840393 
	C84.588676,440.993744 83.316574,429.946899 82.109215,418.453003 
z"/>
<path fill="#D6B664" opacity="1.000000" stroke="none" 
	d="
M319.496857,240.950012 
	C320.832184,238.659439 322.363068,236.083206 324.480774,234.149658 
	C333.183685,226.203644 341.965576,218.336914 350.916901,210.672852 
	C356.576447,205.827164 362.736389,201.566315 368.402008,196.727219 
	C375.468750,190.691437 382.184479,184.246643 389.184387,178.130249 
	C399.074860,169.488159 409.043854,160.934509 419.058655,152.436569 
	C429.276917,143.765991 439.338715,134.881897 449.934357,126.693413 
	C460.547302,118.491539 471.701019,110.984932 482.691010,103.278114 
	C486.215088,100.806839 489.972565,98.668373 493.847046,96.108521 
	C504.204041,99.391777 514.337280,102.944153 524.387817,106.919350 
	C512.803955,115.128441 500.930847,122.427467 489.909454,130.842072 
	C479.502838,138.787308 470.024658,147.943756 460.078430,156.498032 
	C448.631683,166.342819 436.953796,175.925308 425.676086,185.958649 
	C410.417969,199.533218 395.318970,213.294037 380.429230,227.270630 
	C376.141388,231.295517 372.809113,236.338409 369.038727,240.914551 
	C352.679901,240.929657 336.321075,240.944763 319.496857,240.950012 
z"/>
<path fill="#C9A354" opacity="1.000000" stroke="none" 
	d="
M499.993896,556.007324 
	C508.537781,557.343628 517.125427,558.458679 525.602112,560.134766 
	C528.622131,560.731873 531.373108,562.689514 534.246887,564.026123 
	C532.532104,566.123169 531.100342,568.561218 529.054260,570.259094 
	C519.501465,578.186340 509.662201,585.770142 500.157288,593.752869 
	C493.502747,599.341614 487.348816,605.523804 480.742981,611.174072 
	C471.977203,618.671875 462.923035,625.831604 454.112793,633.278503 
	C442.708130,642.918274 431.403839,652.677185 420.090546,662.424561 
	C411.551422,669.781738 403.199585,677.362976 394.515411,684.543335 
	C387.186646,690.602966 379.834534,696.756958 371.835480,701.833435 
	C367.615356,704.511536 363.334351,706.403748 360.739410,711.083069 
	C359.927856,712.546509 357.021301,712.898865 355.029938,713.642456 
	C353.203949,714.324280 351.318878,714.847656 349.229736,715.715332 
	C339.554535,714.092041 330.109436,712.194275 320.507538,709.821655 
	C323.321045,707.604675 327.291626,706.548828 329.055084,703.978577 
	C332.810181,698.505615 338.438721,695.773865 343.282623,691.842529 
	C358.588501,679.420105 373.518829,666.535767 388.653351,653.900818 
	C391.945557,651.152344 395.592377,648.828369 398.882080,646.077271 
	C404.092377,641.719910 409.086731,637.104919 414.281616,632.728455 
	C416.294739,631.032471 418.791382,629.896790 420.743195,628.144409 
	C425.533508,623.843567 430.074127,619.265381 434.840912,614.937256 
	C436.924164,613.045654 439.423309,611.617004 441.547363,609.764587 
	C451.053497,601.474365 460.423218,593.026978 469.975739,584.791138 
	C479.153442,576.878418 488.564453,569.235291 497.687561,561.261597 
	C498.991241,560.122192 499.251007,557.788391 499.993896,556.007324 
z"/>
<path fill="#E6CF7A" opacity="1.000000" stroke="none" 
	d="
M425.669525,276.842529 
	C414.603790,287.213837 403.232208,297.210358 392.093475,307.459961 
	C377.395813,320.984406 362.873352,334.699432 348.290680,348.348602 
	C341.750000,354.470581 335.230286,360.615173 328.727875,366.777771 
	C304.196350,390.027222 279.705658,413.319824 255.142776,436.536072 
	C231.084610,459.275391 207.040604,482.030823 182.828888,504.606049 
	C168.255646,518.194336 153.216156,531.284424 138.717270,544.949585 
	C133.706665,549.672058 129.695663,555.455017 124.928078,560.941101 
	C123.055725,558.463562 121.483383,555.798523 119.924728,552.374573 
	C119.965530,541.733704 128.618469,537.593262 133.924942,531.445374 
	C138.857742,525.730469 145.517441,521.545227 151.080338,516.327820 
	C170.246857,498.351532 189.309189,480.263428 208.330429,462.133179 
	C231.684891,439.872742 254.949966,417.518555 278.268738,395.220642 
	C300.619904,373.848022 323.013794,352.520111 345.342255,331.123840 
	C356.273529,320.648956 367.095062,310.059570 377.978210,299.534332 
	C379.052826,298.495117 380.219604,297.551849 381.329926,296.548920 
	C391.902344,286.998871 402.471802,277.445496 413.042114,267.893097 
	C417.183838,270.788849 421.325531,273.684631 425.669525,276.842529 
z"/>
<path fill="#D1AE5E" opacity="1.000000" stroke="none" 
	d="
M466.051697,537.952393 
	C472.860199,542.490601 479.668671,547.028809 486.675781,552.126465 
	C485.813629,554.118835 484.952942,555.772217 483.658173,556.947327 
	C477.255646,562.758118 470.728973,568.431824 464.264130,574.174255 
	C457.450348,580.226624 450.781921,586.450195 443.815826,592.321106 
	C438.105469,597.133728 431.865784,601.322510 426.204163,606.187500 
	C420.954620,610.698303 416.374390,615.988708 411.118500,620.491272 
	C401.541229,628.695801 391.551239,636.418762 381.978119,644.627991 
	C372.806580,652.492737 364.420990,661.343140 354.841797,668.648071 
	C338.719543,680.942566 324.120026,695.176941 306.956543,706.122864 
	C298.878571,703.431885 290.800568,700.740906 282.505310,697.646729 
	C286.827026,693.716187 291.492188,690.338440 295.882202,686.634521 
	C311.504913,673.453491 327.137024,660.280029 342.568176,646.876465 
	C356.723602,634.581055 370.614410,621.981323 384.640259,609.536438 
	C394.204590,601.050171 403.740112,592.529846 413.399139,584.152283 
	C423.420898,575.460144 433.657227,567.014648 443.646240,558.285706 
	C451.239288,551.650513 458.592041,544.740234 466.051697,537.952393 
z"/>
<path fill="#DBBE6B" opacity="1.000000" stroke="none" 
	d="
M366.554443,258.106934 
	C366.516266,259.354126 366.324188,260.898743 365.451904,261.727356 
	C357.997314,268.808685 350.442810,275.785645 342.870941,282.742371 
	C336.999878,288.136475 331.034760,293.428070 325.158569,298.816620 
	C316.223724,307.010010 307.196472,315.109344 298.460114,323.510315 
	C291.406372,330.293274 284.787201,337.525909 277.852753,344.436096 
	C273.969757,348.305481 269.798004,351.883209 265.824615,355.664093 
	C251.512436,369.282928 237.099350,382.799530 222.982697,396.618591 
	C214.188675,405.227295 206.106323,414.565308 197.274109,423.132263 
	C172.915466,446.759308 148.323334,470.145599 123.840370,493.644684 
	C118.562111,498.710846 113.106102,503.628143 108.235756,509.065277 
	C106.270935,511.258820 105.658829,514.664062 104.176285,517.775391 
	C102.234421,513.716797 100.547386,509.400696 98.829468,504.712158 
	C105.352386,489.401947 118.040627,479.487183 128.792877,468.035339 
	C135.832520,460.537628 143.500122,453.621521 151.001068,446.566742 
	C162.983521,435.296967 175.240799,424.313477 187.040909,412.857758 
	C196.178116,403.987213 204.662659,394.447784 213.689880,385.459290 
	C219.192413,379.980316 225.242844,375.055573 230.902466,369.728149 
	C232.903107,367.844940 234.357391,365.393524 236.267731,363.399506 
	C239.692581,359.824646 243.086472,356.181000 246.837311,352.967590 
	C251.505753,348.968079 256.716766,345.594818 261.317657,341.526184 
	C264.141693,339.028778 266.394073,335.834412 268.675140,332.782562 
	C277.562988,320.891479 289.729553,312.602173 300.731140,302.989380 
	C310.968506,294.044342 320.250122,284.012665 330.116516,274.631927 
	C333.595520,271.324158 337.656158,268.636261 341.268402,265.457550 
	C343.607056,263.399597 345.614227,260.964966 347.893860,258.389526 
	C354.040283,258.077454 360.062744,258.074951 366.554443,258.106934 
z"/>
<path fill="#EBD57F" opacity="1.000000" stroke="none" 
	d="
M600.063599,151.609070 
	C592.903198,150.968948 587.598328,155.579575 582.010925,158.951096 
	C576.621277,162.203293 571.494690,166.019623 566.718079,170.129196 
	C559.716187,176.153259 553.216919,182.757050 546.346497,188.939377 
	C532.638855,201.274292 518.792542,213.455246 505.084808,225.790100 
	C502.753052,227.888336 500.982239,230.603622 498.685699,232.748428 
	C487.873352,242.846268 476.968140,252.844696 465.767639,263.087891 
	C457.214172,258.548157 448.989136,253.799179 440.508698,248.615295 
	C441.325195,246.527435 442.101074,244.545624 443.515015,243.272522 
	C457.348175,230.817307 471.940002,219.125839 485.007721,205.922302 
	C497.282379,193.520081 512.759338,184.510590 522.812317,169.833450 
	C523.451477,168.900223 524.468994,168.196579 525.390442,167.490524 
	C540.949158,155.569168 556.520508,143.664398 572.089111,131.755951 
	C581.357849,138.274429 590.626648,144.792908 600.063599,151.609070 
z"/>
<path fill="#DFC471" opacity="1.000000" stroke="none" 
	d="
M435.243286,496.913300 
	C438.460510,501.683136 441.677704,506.452972 444.810120,511.822937 
	C435.502319,520.769409 426.275757,529.111816 417.057037,537.462830 
	C398.472046,554.298584 379.875702,571.121765 361.313263,587.982361 
	C343.486908,604.174316 325.814606,620.537964 307.858978,636.584900 
	C289.834076,652.693726 273.168335,670.387390 252.995483,684.014099 
	C247.778778,681.216064 242.562073,678.418030 237.421173,675.079468 
	C240.051346,673.421936 243.023956,672.806152 245.078995,671.091003 
	C250.512680,666.556213 255.574066,661.571960 260.737274,656.717285 
	C267.864990,650.015625 274.807739,643.109802 282.089691,636.581421 
	C291.124512,628.481567 300.501160,620.763733 309.572144,612.703064 
	C313.042023,609.619690 316.064728,606.034851 319.310577,602.697266 
	C323.070587,598.831116 326.765747,594.896118 330.648376,591.156555 
	C334.461578,587.483765 338.507019,584.053345 342.386963,580.448120 
	C344.454468,578.527100 346.300690,576.364929 348.396118,574.477417 
	C358.266174,565.586487 368.240906,556.811279 378.076904,547.883057 
	C388.645691,538.289673 399.112671,528.583862 409.599976,518.901001 
	C412.891876,515.861572 415.972900,512.580872 419.386322,509.688995 
	C424.563721,505.302643 429.947296,501.159668 435.243286,496.913300 
z"/>
<path fill="#DBBE6B" opacity="1.000000" stroke="none" 
	d="
M253.217224,684.277466 
	C273.168335,670.387390 289.834076,652.693726 307.858978,636.584900 
	C325.814606,620.537964 343.486908,604.174316 361.313263,587.982361 
	C379.875702,571.121765 398.472046,554.298584 417.057037,537.462830 
	C426.275757,529.111816 435.502319,520.769409 444.938354,512.142151 
	C449.383148,517.360168 453.614868,522.859070 457.648132,528.785645 
	C456.097504,530.161316 454.647186,530.996460 453.408142,532.074402 
	C439.495667,544.178528 425.633057,556.339966 411.722168,568.445923 
	C397.578064,580.754883 383.349640,592.967346 369.242950,605.318848 
	C357.242310,615.826355 345.310272,626.413635 333.442474,637.070923 
	C319.223450,649.839539 305.136383,662.755188 290.919037,675.525757 
	C287.623444,678.486084 284.039429,681.126404 280.573212,683.895325 
	C278.430695,685.606873 276.261108,687.284546 274.101746,688.974976 
	C272.712677,690.062439 271.320129,691.145508 269.929138,692.230530 
	C264.432434,689.667297 258.935699,687.104126 253.217224,684.277466 
z"/>
<path fill="#E3CA76" opacity="1.000000" stroke="none" 
	d="
M412.789978,267.662689 
	C402.471802,277.445496 391.902344,286.998871 381.329926,296.548920 
	C380.219604,297.551849 379.052826,298.495117 377.978210,299.534332 
	C367.095062,310.059570 356.273529,320.648956 345.342255,331.123840 
	C323.013794,352.520111 300.619904,373.848022 278.268738,395.220642 
	C254.949966,417.518555 231.684891,439.872742 208.330429,462.133179 
	C189.309189,480.263428 170.246857,498.351532 151.080338,516.327820 
	C145.517441,521.545227 138.857742,525.730469 133.924942,531.445374 
	C128.618469,537.593262 119.965530,541.733704 119.890816,552.039062 
	C117.632774,548.541443 115.422318,544.620361 113.179893,540.351501 
	C116.272957,536.232483 119.116371,532.178040 122.573128,528.740417 
	C135.608337,515.777588 148.779129,502.948975 162.018723,490.194275 
	C179.482498,473.370117 197.094391,456.699829 214.577332,439.895508 
	C234.107391,421.123444 253.533493,402.243225 273.063446,383.471008 
	C287.315155,369.772369 301.466156,355.959900 316.010101,342.576355 
	C340.342804,320.184998 364.985870,298.131256 389.416473,275.845703 
	C393.710327,271.928833 397.604034,267.573303 401.882263,263.135803 
	C405.567261,264.378265 409.052521,265.905273 412.789978,267.662689 
z"/>
<path fill="#DFC471" opacity="1.000000" stroke="none" 
	d="
M467.979004,468.410065 
	C473.958588,463.322327 480.251282,458.768372 486.133362,453.734558 
	C494.565277,446.518524 502.742615,439.001801 510.945282,431.522003 
	C519.787476,423.459167 528.476440,415.227936 537.340027,407.188965 
	C544.090759,401.066284 551.078064,395.204285 557.819275,389.071411 
	C560.381592,386.740295 562.364990,383.772736 564.928223,381.442841 
	C581.744263,366.157806 597.898804,350.011017 615.758789,336.051178 
	C629.910095,324.990204 641.675537,311.732697 654.784424,299.760590 
	C661.528931,293.600891 668.639954,287.841461 675.360962,281.657410 
	C680.354858,277.062469 684.987732,272.075317 689.975952,266.964203 
	C692.200012,271.141937 694.229492,275.618347 696.057068,280.723633 
	C694.407593,283.170166 693.174622,285.224823 691.474731,286.763641 
	C684.736145,292.863525 677.853271,298.804108 671.020264,304.799591 
	C667.659485,307.748444 664.200562,310.592102 660.941406,313.648987 
	C647.253296,326.487457 633.619751,339.384155 619.974915,352.268768 
	C614.189209,357.732239 608.547974,363.355835 602.623718,368.664032 
	C592.261353,377.948761 581.672791,386.980804 571.289673,396.242828 
	C563.109741,403.539581 555.142883,411.074768 546.987915,418.400055 
	C543.285706,421.725677 539.245422,424.675995 535.557129,428.015900 
	C529.671326,433.345764 523.996033,438.907379 518.151794,444.284058 
	C506.673767,454.843842 495.209198,465.420624 483.567505,475.797913 
	C481.465790,477.671387 478.542603,478.623260 475.998657,480.000610 
	C473.368683,476.243591 470.738678,472.486511 467.979004,468.410065 
z"/>
<path fill="#E6CF7A" opacity="1.000000" stroke="none" 
	d="
M211.762299,658.473999 
	C216.327759,657.057007 220.793900,655.637329 223.276077,650.701050 
	C223.906769,649.446838 225.989838,648.942139 227.372421,648.042114 
	C229.444214,646.693542 231.714920,645.546631 233.507034,643.888184 
	C256.425446,622.679626 279.405487,601.534119 302.059448,580.045349 
	C308.885193,573.570679 314.749329,566.083191 321.066498,559.070862 
	C323.290375,556.602234 325.444214,554.057617 327.813873,551.735352 
	C340.410248,539.390442 352.946960,526.980896 365.730591,514.831787 
	C380.309265,500.976624 395.141785,487.388885 409.821289,473.639313 
	C411.881500,471.709595 413.698578,469.520264 415.858215,467.202271 
	C419.297607,471.765778 422.506958,476.578186 425.653595,481.978119 
	C421.862762,486.113556 418.165924,489.695068 414.399506,493.201874 
	C408.094299,499.072632 401.740997,504.891724 395.414856,510.740051 
	C389.438507,516.265076 383.407471,521.733093 377.520599,527.351990 
	C373.078247,531.592041 368.957245,536.172607 364.459351,540.349731 
	C356.324402,547.904480 347.947845,555.198792 339.794861,562.734558 
	C329.414886,572.328735 319.119141,582.015076 308.858765,591.737305 
	C301.509949,598.700806 293.494446,605.162170 287.230408,613.008362 
	C281.695862,619.940857 275.299103,625.356018 268.253601,630.418579 
	C264.497345,633.117615 261.255951,636.540771 257.826569,639.685608 
	C252.681320,644.403870 247.530884,649.118164 242.470154,653.926331 
	C239.765732,656.495789 237.438126,659.493164 234.573364,661.851501 
	C232.646866,663.437500 230.143387,664.411560 227.771835,665.335388 
	C226.285568,665.914307 224.565216,665.892212 222.949890,666.139832 
	C219.287827,663.680054 215.625793,661.220276 211.762299,658.473999 
z"/>
<path fill="#C9A354" opacity="1.000000" stroke="none" 
	d="
M533.271423,542.207397 
	C538.012207,538.479980 543.223022,535.221069 547.989319,531.406799 
	C556.928040,524.253479 565.581787,516.745361 574.405212,509.446625 
	C584.236572,501.314178 594.291199,493.443024 603.940674,485.101898 
	C613.216370,477.083771 621.978149,468.473663 631.181824,460.369019 
	C644.763000,448.409546 658.546082,436.679443 672.221985,424.827240 
	C678.737061,419.180969 685.326660,413.612000 691.660522,407.767517 
	C699.588562,400.452087 707.264465,392.863953 715.115295,385.463654 
	C716.168213,384.471161 717.607117,383.888153 719.186340,383.045685 
	C719.667297,390.339874 719.829224,397.703918 719.910522,405.529968 
	C718.378540,406.726959 716.331238,407.076416 715.567993,408.256409 
	C707.692749,420.431946 694.843018,427.437347 685.093201,437.706604 
	C678.337036,444.822662 669.589600,450.030121 661.861206,456.250916 
	C659.162231,458.423370 656.944214,461.182556 654.341675,463.487640 
	C648.404419,468.746307 642.372375,473.898071 636.357117,479.068054 
	C635.734253,479.603455 634.872437,479.870026 634.277832,480.427979 
	C627.920959,486.392761 621.619873,492.417145 615.244446,498.361877 
	C613.673706,499.826477 611.826172,500.990295 610.213318,502.414124 
	C600.566223,510.931000 590.973389,519.509705 581.297791,527.993896 
	C579.951233,529.174683 578.266235,529.979492 576.704712,530.902161 
	C575.423462,531.659241 573.877563,532.100525 572.819641,533.081543 
	C566.598083,538.850769 560.446228,544.696899 554.352905,550.601807 
	C551.499329,553.367188 549.094543,553.133301 546.446655,550.236084 
	C544.740601,548.369507 542.454102,546.960938 540.251404,545.641479 
	C538.132629,544.372375 535.786865,543.482117 533.271423,542.207397 
z"/>
<path fill="#DBBE6B" opacity="1.000000" stroke="none" 
	d="
M476.163879,480.294861 
	C478.542603,478.623260 481.465790,477.671387 483.567505,475.797913 
	C495.209198,465.420624 506.673767,454.843842 518.151794,444.284058 
	C523.996033,438.907379 529.671326,433.345764 535.557129,428.015900 
	C539.245422,424.675995 543.285706,421.725677 546.987915,418.400055 
	C555.142883,411.074768 563.109741,403.539581 571.289673,396.242828 
	C581.672791,386.980804 592.261353,377.948761 602.623718,368.664032 
	C608.547974,363.355835 614.189209,357.732239 619.974915,352.268768 
	C633.619751,339.384155 647.253296,326.487457 660.941406,313.648987 
	C664.200562,310.592102 667.659485,307.748444 671.020264,304.799591 
	C677.853271,298.804108 684.736145,292.863525 691.474731,286.763641 
	C693.174622,285.224823 694.407593,283.170166 696.102661,281.097107 
	C697.989868,284.936829 699.629578,289.032013 701.376221,293.495117 
	C699.248718,296.474426 697.182922,299.256439 694.746948,301.663971 
	C688.364624,307.971832 681.861084,314.158997 675.332642,320.316650 
	C662.960144,331.986359 650.704712,343.787903 638.091125,355.192291 
	C622.557068,369.237122 606.578613,382.790161 591.037598,396.827423 
	C580.332275,406.496887 570.063965,416.649139 559.558228,426.540924 
	C555.827026,430.054016 552.037354,433.511353 548.157715,436.859009 
	C541.891785,442.265869 535.441345,447.460999 529.228699,452.927246 
	C520.514282,460.594666 512.069519,468.571625 503.273254,476.141785 
	C497.266113,481.311554 490.855865,486.012939 484.265259,490.991272 
	C481.379486,487.568848 478.854279,484.078979 476.163879,480.294861 
z"/>
<path fill="#E3CA76" opacity="1.000000" stroke="none" 
	d="
M223.126495,666.424561 
	C224.565216,665.892212 226.285568,665.914307 227.771835,665.335388 
	C230.143387,664.411560 232.646866,663.437500 234.573364,661.851501 
	C237.438126,659.493164 239.765732,656.495789 242.470154,653.926331 
	C247.530884,649.118164 252.681320,644.403870 257.826569,639.685608 
	C261.255951,636.540771 264.497345,633.117615 268.253601,630.418579 
	C275.299103,625.356018 281.695862,619.940857 287.230408,613.008362 
	C293.494446,605.162170 301.509949,598.700806 308.858765,591.737305 
	C319.119141,582.015076 329.414886,572.328735 339.794861,562.734558 
	C347.947845,555.198792 356.324402,547.904480 364.459351,540.349731 
	C368.957245,536.172607 373.078247,531.592041 377.520599,527.351990 
	C383.407471,521.733093 389.438507,516.265076 395.414856,510.740051 
	C401.740997,504.891724 408.094299,499.072632 414.399506,493.201874 
	C418.165924,489.695068 421.862762,486.113556 425.783264,482.296814 
	C428.963470,486.780090 431.951355,491.532166 435.091248,496.598755 
	C429.947296,501.159668 424.563721,505.302643 419.386322,509.688995 
	C415.972900,512.580872 412.891876,515.861572 409.599976,518.901001 
	C399.112671,528.583862 388.645691,538.289673 378.076904,547.883057 
	C368.240906,556.811279 358.266174,565.586487 348.396118,574.477417 
	C346.300690,576.364929 344.454468,578.527100 342.386963,580.448120 
	C338.507019,584.053345 334.461578,587.483765 330.648376,591.156555 
	C326.765747,594.896118 323.070587,598.831116 319.310577,602.697266 
	C316.064728,606.034851 313.042023,609.619690 309.572144,612.703064 
	C300.501160,620.763733 291.124512,628.481567 282.089691,636.581421 
	C274.807739,643.109802 267.864990,650.015625 260.737274,656.717285 
	C255.574066,661.571960 250.512680,666.556213 245.078995,671.091003 
	C243.023956,672.806152 240.051346,673.421936 237.240387,674.788452 
	C232.423538,672.261841 227.863327,669.485596 223.126495,666.424561 
z"/>
<path fill="#E6CF7A" opacity="1.000000" stroke="none" 
	d="
M679.027832,245.600555 
	C666.731628,257.175446 654.364990,268.516327 641.762207,279.588440 
	C639.101379,281.926117 635.136963,282.797546 632.527588,285.173187 
	C623.195984,293.668976 614.247681,302.583923 605.041016,311.219330 
	C597.038940,318.724915 588.894226,326.078796 580.792114,333.477234 
	C574.404419,339.310242 567.939392,345.059296 561.591187,350.934814 
	C552.186707,359.639099 542.696167,368.259674 533.538208,377.218475 
	C524.709717,385.854919 516.322754,394.940826 507.611572,403.699860 
	C503.156067,408.179840 498.421600,412.382874 493.802643,416.699738 
	C481.650269,428.057343 469.492065,439.408630 457.076843,451.011230 
	C454.269073,447.404724 451.720581,443.549377 449.026794,439.381165 
	C450.984314,437.790680 453.383514,436.829865 455.142151,435.184418 
	C467.166077,423.934479 479.053619,412.538849 490.988739,401.193970 
	C506.506409,386.443726 521.912659,371.573792 537.575623,356.979370 
	C557.869934,338.069427 578.444946,319.460754 598.751831,300.564087 
	C609.819153,290.265289 620.560913,279.617188 631.502014,269.181702 
	C633.422302,267.350128 635.520569,265.676636 637.679138,264.128784 
	C643.456543,259.985992 649.496704,256.186829 655.077881,251.800018 
	C659.699646,248.167282 664.067017,244.121765 668.036743,239.791260 
	C669.693604,237.983841 670.028625,234.964722 671.165039,232.163895 
	C673.867981,236.311111 676.370605,240.790955 679.027832,245.600555 
z"/>
<path fill="#DBBE6B" opacity="1.000000" stroke="none" 
	d="
M369.503418,240.930450 
	C372.809113,236.338409 376.141388,231.295517 380.429230,227.270630 
	C395.318970,213.294037 410.417969,199.533218 425.676086,185.958649 
	C436.953796,175.925308 448.631683,166.342819 460.078430,156.498032 
	C470.024658,147.943756 479.502838,138.787308 489.909454,130.842072 
	C500.930847,122.427467 512.803955,115.128441 524.621460,107.184868 
	C529.854065,109.149521 534.770264,111.271469 539.630432,113.844261 
	C534.187744,118.167442 528.714294,121.925758 523.439392,125.944633 
	C518.297668,129.861984 513.358398,134.045181 508.331177,138.112778 
	C503.174896,142.284805 497.849670,146.267471 492.904205,150.676117 
	C485.628632,157.161896 478.782928,164.132034 471.470337,170.573654 
	C457.896027,182.531113 443.781403,193.895142 430.540070,206.203751 
	C421.659760,214.458542 413.165497,223.014755 403.233032,230.118073 
	C399.699036,232.645432 397.697693,237.315903 394.996765,241.008102 
	C386.653870,240.987518 378.311005,240.966934 369.503418,240.930450 
z"/>
<path fill="#E3CA76" opacity="1.000000" stroke="none" 
	d="
M571.885010,131.481598 
	C556.520508,143.664398 540.949158,155.569168 525.390442,167.490524 
	C524.468994,168.196579 523.451477,168.900223 522.812317,169.833450 
	C512.759338,184.510590 497.282379,193.520081 485.007721,205.922302 
	C471.940002,219.125839 457.348175,230.817307 443.515015,243.272522 
	C442.101074,244.545624 441.325195,246.527435 440.163879,248.504166 
	C432.002167,246.875977 423.929810,244.924011 415.566284,242.604187 
	C417.040466,240.549118 418.688538,238.712372 420.600586,237.212051 
	C423.071991,235.272766 426.362518,234.090424 428.250000,231.739029 
	C444.016113,212.097961 465.916901,199.087265 482.930023,180.825089 
	C483.153381,180.585342 483.468018,180.433289 483.721771,180.218704 
	C493.597412,171.867874 503.665253,163.731659 513.297668,155.108978 
	C526.666321,143.141602 540.036621,131.223557 555.415710,121.820053 
	C560.837463,124.949112 566.259216,128.078171 571.885010,131.481598 
z"/>
<path fill="#D6B664" opacity="1.000000" stroke="none" 
	d="
M270.161224,692.484497 
	C271.320129,691.145508 272.712677,690.062439 274.101746,688.974976 
	C276.261108,687.284546 278.430695,685.606873 280.573212,683.895325 
	C284.039429,681.126404 287.623444,678.486084 290.919037,675.525757 
	C305.136383,662.755188 319.223450,649.839539 333.442474,637.070923 
	C345.310272,626.413635 357.242310,615.826355 369.242950,605.318848 
	C383.349640,592.967346 397.578064,580.754883 411.722168,568.445923 
	C425.633057,556.339966 439.495667,544.178528 453.408142,532.074402 
	C454.647186,530.996460 456.097504,530.161316 457.784668,529.101013 
	C460.629700,531.800476 463.139771,534.612366 465.850769,537.688293 
	C458.592041,544.740234 451.239288,551.650513 443.646240,558.285706 
	C433.657227,567.014648 423.420898,575.460144 413.399139,584.152283 
	C403.740112,592.529846 394.204590,601.050171 384.640259,609.536438 
	C370.614410,621.981323 356.723602,634.581055 342.568176,646.876465 
	C327.137024,660.280029 311.504913,673.453491 295.882202,686.634521 
	C291.492188,690.338440 286.827026,693.716187 282.142120,697.541748 
	C278.128571,696.139404 274.260925,694.438904 270.161224,692.484497 
z"/>
<path fill="#DFC471" opacity="1.000000" stroke="none" 
	d="
M555.182251,121.553894 
	C540.036621,131.223557 526.666321,143.141602 513.297668,155.108978 
	C503.665253,163.731659 493.597412,171.867874 483.721771,180.218704 
	C483.468018,180.433289 483.153381,180.585342 482.930023,180.825089 
	C465.916901,199.087265 444.016113,212.097961 428.250000,231.739029 
	C426.362518,234.090424 423.071991,235.272766 420.600586,237.212051 
	C418.688538,238.712372 417.040466,240.549118 415.161499,242.543762 
	C408.645233,242.265533 402.242615,241.679871 395.418365,241.051147 
	C397.697693,237.315903 399.699036,232.645432 403.233032,230.118073 
	C413.165497,223.014755 421.659760,214.458542 430.540070,206.203751 
	C443.781403,193.895142 457.896027,182.531113 471.470337,170.573654 
	C478.782928,164.132034 485.628632,157.161896 492.904205,150.676117 
	C497.849670,146.267471 503.174896,142.284805 508.331177,138.112778 
	C513.358398,134.045181 518.297668,129.861984 523.439392,125.944633 
	C528.714294,121.925758 534.187744,118.167442 539.869873,114.102707 
	C545.093140,116.369453 550.020996,118.828598 555.182251,121.553894 
z"/>
<path fill="#D1AE5E" opacity="1.000000" stroke="none" 
	d="
M714.332764,341.458618 
	C706.700989,349.938171 699.372559,358.320679 691.362000,365.990753 
	C681.183228,375.736877 670.467651,384.923553 659.953796,394.318085 
	C648.562012,404.497101 637.213196,414.726440 625.694946,424.760803 
	C619.068787,430.533264 612.050049,435.853607 605.383606,441.581757 
	C600.106812,446.115875 595.188293,451.064972 589.950378,455.646545 
	C579.326721,464.938904 568.549927,474.056091 557.921143,483.342682 
	C549.533813,490.670929 541.340881,498.222107 532.934448,505.528015 
	C526.688660,510.956207 520.282410,516.203796 513.838013,521.395813 
	C512.751526,522.271118 511.108795,522.455994 509.347473,522.990479 
	C507.102234,520.864990 505.232605,518.708862 503.176727,516.280396 
	C507.253357,513.204346 511.889404,510.831757 515.713440,507.521210 
	C531.048340,494.245514 546.080322,480.620636 561.331726,467.247314 
	C567.945129,461.448273 574.933899,456.077515 581.549011,450.280304 
	C593.525452,439.784515 605.291626,429.048828 617.254211,418.537018 
	C628.112366,408.995667 639.144958,399.653137 650.040100,390.153564 
	C654.652588,386.131958 659.216858,382.043091 663.618652,377.793793 
	C676.900146,364.972321 690.138245,352.104767 703.278625,339.139069 
	C705.984253,336.469482 708.193726,333.297119 710.899719,330.141174 
	C712.222717,333.632233 713.277832,337.338654 714.332764,341.458618 
z"/>
<path fill="#CDA858" opacity="1.000000" stroke="none" 
	d="
M307.221252,706.375061 
	C324.120026,695.176941 338.719543,680.942566 354.841797,668.648071 
	C364.420990,661.343140 372.806580,652.492737 381.978119,644.627991 
	C391.551239,636.418762 401.541229,628.695801 411.118500,620.491272 
	C416.374390,615.988708 420.954620,610.698303 426.204163,606.187500 
	C431.865784,601.322510 438.105469,597.133728 443.815826,592.321106 
	C450.781921,586.450195 457.450348,580.226624 464.264130,574.174255 
	C470.728973,568.431824 477.255646,562.758118 483.658173,556.947327 
	C484.952942,555.772217 485.813629,554.118835 486.940247,552.339050 
	C491.093750,553.269592 495.181427,554.546936 499.631470,555.915833 
	C499.251007,557.788391 498.991241,560.122192 497.687561,561.261597 
	C488.564453,569.235291 479.153442,576.878418 469.975739,584.791138 
	C460.423218,593.026978 451.053497,601.474365 441.547363,609.764587 
	C439.423309,611.617004 436.924164,613.045654 434.840912,614.937256 
	C430.074127,619.265381 425.533508,623.843567 420.743195,628.144409 
	C418.791382,629.896790 416.294739,631.032471 414.281616,632.728455 
	C409.086731,637.104919 404.092377,641.719910 398.882080,646.077271 
	C395.592377,648.828369 391.945557,651.152344 388.653351,653.900818 
	C373.518829,666.535767 358.588501,679.420105 343.282623,691.842529 
	C338.438721,695.773865 332.810181,698.505615 329.055084,703.978577 
	C327.291626,706.548828 323.321045,707.604675 320.174988,709.633789 
	C315.828186,708.822876 311.657074,707.725098 307.221252,706.375061 
z"/>
<path fill="#C59E4E" opacity="1.000000" stroke="none" 
	d="
M321.854431,409.430176 
	C322.976624,394.023010 331.147461,386.249908 346.581970,385.834167 
	C360.868958,389.625549 368.413086,399.365265 366.637970,411.128357 
	C364.991913,422.036316 355.307922,430.890411 345.243439,430.689423 
	C332.627075,430.437469 323.178680,421.994171 321.854431,409.430176 
z"/>
</svg>